<?xml version="1.0" encoding="UTF-8"?>
<svg width="1200pt" height="1200pt" version="1.1" viewBox="0 0 1200 1200" xmlns="http://www.w3.org/2000/svg">
 <g fill-rule="evenodd" fill="#A5CECA">
  <path d="m736.49 188.99c0 70.688-57.301 127.99-127.99 127.99-70.684 0-127.98-57.301-127.98-127.99 0-70.684 57.301-127.99 127.98-127.99 70.688 0 127.99 57.305 127.99 127.99"/>
  <path d="m480.44 211.11 128.03 404.93 128.03-404.93z"/>
  <path d="m736.49 1037.7c0 70.688-57.301 127.99-127.99 127.99-70.684 0-127.98-57.301-127.98-127.99s57.301-127.99 127.98-127.99c70.688 0 127.99 57.301 127.99 127.99"/>
  <path d="m608.47 610.68-128.03 404.93h256.06z"/>
  <path d="m1093.5 841.95c0 70.684-57.305 127.99-127.99 127.99-70.688 0-127.99-57.305-127.99-127.99 0-70.688 57.301-127.99 127.99-127.99 70.684 0 127.99 57.301 127.99 127.99"/>
  <path d="m606.92 610.01 270.44 327.46 139.09-214.98z"/>
  <path d="m1093.5 382.7c0 70.688-57.305 127.99-127.99 127.99-70.688 0-127.99-57.301-127.99-127.99 0-70.684 57.301-127.99 127.99-127.99 70.684 0 127.99 57.305 127.99 127.99"/>
  <path d="m877.36 287.18-270.44 327.46 409.53-112.46z"/>
  <path d="m381 382.71c0 70.684-57.301 127.99-127.98 127.99-70.688 0-127.99-57.305-127.99-127.99 0-70.688 57.301-127.99 127.99-127.99 70.684 0 127.98 57.301 127.98 127.99"/>
  <path d="m341.15 287.18-139.09 215 409.53 112.46z"/>
  <path d="m381 841.95c0 70.684-57.301 127.99-127.98 127.99-70.688 0-127.99-57.305-127.99-127.99 0-70.688 57.301-127.99 127.99-127.99 70.684 0 127.98 57.301 127.98 127.99"/>
  <path d="m202.05 722.48 139.09 214.98 270.43-327.46z"/>
 </g>
</svg>
